<svg xmlns="http://www.w3.org/2000/svg" width="18" height="10" viewBox="0 0 18 10">
  <path fill="#131415" fill-rule="evenodd" d="M37.5,30.5 C37.8245553,30.5 38.1403557,30.6052668 38.4,30.8 L42.4,33.8 C43.0627417,34.2970563 43.1970563,35.2372583 42.7,35.9 C42.6147186,36.0137085 42.5137085,36.1147186 42.4,36.2 L38.4,39.2 C37.7372583,39.6970563 36.7970563,39.5627417 36.3,38.9 C36.1052668,38.6403557 36,38.3245553 36,38 L36,36 L26,36 C25.4477153,36 25,35.5522847 25,35 C25,34.4477153 25.4477153,34 26,34 L36,34 L36,32 C36,31.1715729 36.6715729,30.5 37.5,30.5 Z" transform="translate(-25 -30)"/>
</svg>
