<svg xmlns="http://www.w3.org/2000/svg" width="64" height="18" viewBox="0 0 64 18">
  <path fill="#22141D" d="M11.1328125,2 C12.734375,2 14.1162109,2.27832031 15.2783203,2.83496094 C16.4404297,3.39160156 17.3388672,4.17773438 17.9736328,5.19335938 C18.6083984,6.20898438 18.9257812,7.41015625 18.9257812,8.796875 C18.9257812,10.2421875 18.6328125,11.6191406 18.046875,12.9277344 C17.4609375,14.2363281 16.6601562,15.4033203 15.6445312,16.4287109 C14.6289062,17.4541016 13.4716797,18.2597656 12.1728516,18.8457031 C10.8740234,19.4316406 9.50195312,19.7246094 8.05664062,19.7246094 C6.43554688,19.7246094 5.01953125,19.4267578 3.80859375,18.8310547 C2.59765625,18.2353516 1.66015625,17.4101562 0.99609375,16.3554688 C0.33203125,15.3007812 0,14.0605469 0,12.6347656 C0,11.1699219 0.29296875,9.79785156 0.87890625,8.51855469 C1.46484375,7.23925781 2.27050781,6.11132812 3.29589844,5.13476562 C4.32128906,4.15820312 5.50292969,3.39160156 6.84082031,2.83496094 C8.17871094,2.27832031 9.609375,2 11.1328125,2 Z M10.5761719,4.109375 C9.59960938,4.109375 8.69628906,4.48535156 7.86621094,5.23730469 C7.03613281,5.98925781 6.37695312,7.00976562 5.88867188,8.29882812 C5.40039062,9.58789062 5.15625,11.0234375 5.15625,12.6054688 C5.15625,14.0703125 5.46386719,15.2226562 6.07910156,16.0625 C6.69433594,16.9023438 7.51953125,17.3222656 8.5546875,17.3222656 C9.55078125,17.3222656 10.4443359,16.9462891 11.2353516,16.1943359 C12.0263672,15.4423828 12.65625,14.4169922 13.125,13.1181641 C13.59375,11.8193359 13.828125,10.3691406 13.828125,8.76757812 C13.828125,7.22460938 13.5449219,6.0625 12.9785156,5.28125 C12.4121094,4.5 11.6113281,4.109375 10.5761719,4.109375 Z M30.7792969,6.4609375 C31.7102865,6.4609375 32.5302734,6.66145833 33.2392578,7.0625 C33.9482422,7.46354167 34.4996745,8.02213542 34.8935547,8.73828125 C35.2874349,9.45442708 35.484375,10.2779948 35.484375,11.2089844 C35.484375,12.139974 35.2695312,12.9814453 34.8398438,13.7333984 C34.4101562,14.4853516 33.8336589,15.0797526 33.1103516,15.5166016 C32.3870443,15.9534505 31.5813802,16.171875 30.6933594,16.171875 C29.719401,16.171875 28.8636068,15.9677734 28.1259766,15.5595703 C27.3883464,15.1513672 26.811849,14.585612 26.3964844,13.8623047 C25.9811198,13.1389974 25.7734375,12.311849 25.7734375,11.3808594 C25.7734375,10.3639323 26.0061849,9.48665365 26.4716797,8.74902344 C26.9371745,8.01139323 27.5530599,7.44563802 28.3193359,7.05175781 C29.085612,6.6578776 29.905599,6.4609375 30.7792969,6.4609375 Z M49.7929688,6.4609375 C50.2369792,6.4609375 50.688151,6.50032552 51.1464844,6.57910156 C51.6048177,6.6578776 51.984375,6.76888021 52.2851562,6.91210938 L52.2851562,6.91210938 L52.5214844,9.31835938 L51.2539062,9.31835938 L50.7597656,7.81445312 L50.6469727,7.75335693 C50.5288086,7.69561768 50.3945312,7.64794922 50.2441406,7.61035156 C50.0436198,7.56022135 49.843099,7.53515625 49.6425781,7.53515625 C49.1842448,7.53515625 48.8190104,7.6389974 48.546875,7.84667969 C48.2747396,8.05436198 48.1386719,8.32291667 48.1386719,8.65234375 C48.1386719,9.01041667 48.2998047,9.31119792 48.6220703,9.5546875 C48.9443359,9.79817708 49.5208333,10.0989583 50.3515625,10.4570312 C51.296875,10.8580729 51.9664714,11.2734375 52.3603516,11.703125 C52.7542318,12.1328125 52.9511719,12.6627604 52.9511719,13.2929688 C52.9511719,14.1523438 52.5716146,14.8470052 51.8125,15.3769531 C51.0533854,15.906901 50.0794271,16.171875 48.890625,16.171875 C48.3177083,16.171875 47.7447917,16.1074219 47.171875,15.9785156 C46.5989583,15.8496094 46.1191406,15.6777344 45.7324219,15.4628906 L45.7324219,15.4628906 L45.625,13.0136719 L46.8925781,13.0136719 L47.34375,14.5605469 L47.5394592,14.6763611 C48.0015971,14.9285787 48.5021159,15.0546875 49.0410156,15.0546875 C49.499349,15.0546875 49.8574219,14.9544271 50.1152344,14.7539062 C50.3730469,14.5533854 50.5019531,14.2884115 50.5019531,13.9589844 C50.5019531,13.6152344 50.3730469,13.3216146 50.1152344,13.078125 C49.8574219,12.8346354 49.3346354,12.5625 48.546875,12.2617188 C47.5013021,11.8606771 46.7708333,11.438151 46.3554688,10.9941406 C45.9401042,10.5501302 45.7324219,9.99153646 45.7324219,9.31835938 C45.7324219,8.75976562 45.9042969,8.265625 46.2480469,7.8359375 C46.5917969,7.40625 47.0680339,7.06966146 47.6767578,6.82617188 C48.2854818,6.58268229 48.9908854,6.4609375 49.7929688,6.4609375 Z M58.3007812,6.4609375 C59.5182292,6.4609375 60.4814453,6.74739583 61.1904297,7.3203125 C61.8994141,7.89322917 62.2610677,8.65950521 62.2753906,9.61914062 L62.2753906,9.61914062 L62.2109375,12.7773438 L62.2122266,12.9926172 C62.2156641,13.268763 62.2259766,13.5013672 62.2431641,13.6904297 C62.2646484,13.9267578 62.3040365,14.1165365 62.3613281,14.2597656 L62.3613281,14.2597656 L63.7578125,14.5175781 L63.7578125,15.3339844 L62.4902344,15.8710938 L62.2527127,15.9629991 C62.0983435,16.0186994 61.9519314,16.0632595 61.8134766,16.0966797 C61.6057943,16.1468099 61.4160156,16.171875 61.2441406,16.171875 L61.2441406,16.171875 L61.1074219,16.1651278 C60.6647135,16.1201468 60.3522135,15.8502604 60.1699219,15.3554688 L60.1699219,15.3554688 L59.981,14.806 L59.8735252,14.9213967 C59.5534518,15.2517007 59.2297247,15.5217169 58.9023438,15.7314453 C58.4440104,16.0250651 57.9928385,16.171875 57.5488281,16.171875 C56.9042969,16.171875 56.3492839,16.0358073 55.8837891,15.7636719 C55.4182943,15.4915365 55.0638021,15.1621094 54.8203125,14.7753906 C54.5768229,14.3886719 54.4550781,14.016276 54.4550781,13.6582031 C54.4550781,13.156901 54.6126302,12.7379557 54.9277344,12.4013672 C55.2428385,12.0647786 55.7441406,11.7890625 56.4316406,11.5742188 L56.4316406,11.5742188 L59.7832031,10.5429688 L59.7832031,9.66210938 L59.7748481,9.50634766 C59.746998,9.24972873 59.6495226,9.00802951 59.4824219,8.78125 C59.281901,8.50911458 59.0169271,8.28710938 58.6875,8.11523438 C58.3580729,7.94335938 58,7.85742188 57.6132812,7.85742188 C57.3411458,7.85742188 57.1513672,7.91829427 57.0439453,8.04003906 C56.9365234,8.16178385 56.8684896,8.40169271 56.8398438,8.75976562 L56.8398438,8.75976562 L56.7539062,9.91992188 L56.5174103,9.96607971 C55.9777273,10.0561574 55.5230306,10.0228678 55.1533203,9.86621094 C54.7307943,9.68717448 54.5195312,9.38997396 54.5195312,8.97460938 C54.5195312,8.71679688 54.6484375,8.45182292 54.90625,8.1796875 C55.1640625,7.90755208 55.4899089,7.64973958 55.8837891,7.40625 C56.2776693,7.16276042 56.6894531,6.95507812 57.1191406,6.78320312 C57.5488281,6.61132812 57.9427083,6.50390625 58.3007812,6.4609375 Z M40.0390625,6.50390625 L40.5332031,6.84765625 L40.4472656,8.56640625 L40.5117188,8.58789062 L40.636543,8.355 C41.0116602,7.67953125 41.3925781,7.21289062 41.7792969,6.95507812 C42.2089844,6.66861979 42.6386719,6.52539062 43.0683594,6.52539062 C43.4407552,6.52539062 43.7594401,6.62565104 44.0244141,6.82617188 C44.289388,7.02669271 44.421875,7.33463542 44.421875,7.75 C44.421875,8.16536458 44.2786458,8.48763021 43.9921875,8.71679688 C43.7057292,8.94596354 43.3619792,9.06054688 42.9609375,9.06054688 C42.6458333,9.06054688 42.3557943,9.00325521 42.0908203,8.88867188 L42.0908203,8.88867188 L41.9305469,8.81046875 C41.8228385,8.75203125 41.7134115,8.68098958 41.6022656,8.59734375 L41.6022656,8.59734375 L41.567,8.57 L41.4624023,8.66577148 C41.3513997,8.77498372 41.2421875,8.89583333 41.1347656,9.02832031 C40.9199219,9.29329427 40.7265625,9.60481771 40.5546875,9.96289062 L40.5546875,9.96289062 L40.5761719,11.7460938 L40.5869141,12.0945435 C40.5976562,12.4369507 40.6083984,12.7612305 40.6191406,13.0673828 C40.6334635,13.4755859 40.6477865,13.8264974 40.6621094,14.1201172 C40.6764323,14.413737 40.6907552,14.6178385 40.7050781,14.7324219 L40.7050781,14.7324219 L42.5742188,15.0332031 L42.5097656,16 L36.7519531,16 L36.6875,15.0761719 L38.0195312,14.7324219 L38.028125,14.6903125 C38.0395833,14.6238542 38.0510417,14.5161458 38.0625,14.3671875 C38.0768229,14.1809896 38.0911458,13.9339193 38.1054688,13.6259766 C38.1197917,13.3180339 38.1269531,12.9563802 38.1269531,12.5410156 L38.1269531,12.5410156 L38.1484375,10.9082031 L38.145752,10.5812378 C38.1403809,10.2603149 38.1269531,9.95751953 38.1054688,9.67285156 C38.0768229,9.29329427 38.0266927,8.93880208 37.9550781,8.609375 L37.9550781,8.609375 L36.5800781,8.30859375 L36.5800781,7.42773438 L40.0390625,6.50390625 Z M30.4785156,7.64257812 C29.8626302,7.64257812 29.3720703,7.93619792 29.0068359,8.5234375 C28.6416016,9.11067708 28.4589844,9.89127604 28.4589844,10.8652344 C28.4589844,11.6386719 28.5664062,12.3333333 28.78125,12.9492188 C28.9960938,13.5651042 29.2861328,14.0485026 29.6513672,14.3994141 C30.0166016,14.7503255 30.4355469,14.9257812 30.9082031,14.9257812 C31.3092448,14.9257812 31.6529948,14.8004557 31.9394531,14.5498047 C32.2259115,14.2991536 32.4479167,13.9375 32.6054688,13.4648438 C32.7630208,12.9921875 32.8417969,12.4407552 32.8417969,11.8105469 C32.8417969,10.578776 32.6269531,9.57617188 32.1972656,8.80273438 C31.7675781,8.02929688 31.1946615,7.64257812 30.4785156,7.64257812 Z M59.7832031,11.6816406 L58.0214844,12.0683594 L57.857666,12.1083442 C57.5980632,12.1819481 57.405599,12.2903646 57.2802734,12.4335938 C57.1298828,12.6054688 57.0546875,12.8346354 57.0546875,13.1210938 C57.0546875,13.4648438 57.1943359,13.7692057 57.4736328,14.0341797 C57.7529297,14.2991536 58.0859375,14.4316406 58.4726562,14.4316406 C58.7161458,14.4316406 58.9488932,14.3850911 59.1708984,14.2919922 C59.3929036,14.1988932 59.5970052,14.0449219 59.7832031,13.8300781 L59.7832031,13.8300781 L59.7832031,11.6816406 Z" transform="translate(0 -2)"/>
</svg>
